<svg width="22" height="22" viewBox="0 0 22 22" fill="none" xmlns="http://www.w3.org/2000/svg">
<path d="M13.001 18.9133H20.0039" stroke="white" stroke-width="1.5" stroke-linecap="round" stroke-linejoin="round"/>
<path d="M6.99832 15.752L5.11954 17.6277L3.99707 16.5023" stroke="white" stroke-width="1.5" stroke-linecap="round" stroke-linejoin="round"/>
<circle cx="5.49797" cy="16.5023" r="4.50187" stroke="white" stroke-width="1.5" stroke-linecap="round" stroke-linejoin="round"/>
<path d="M18.7834 8.77905V18.9133" stroke="white" stroke-width="1.5" stroke-linecap="round" stroke-linejoin="round"/>
<path d="M12.0005 12.0004H15.0017V15.0017H13.0009" stroke="white" stroke-width="1.5" stroke-linecap="round" stroke-linejoin="round"/>
<path d="M3.24994 8.77709V8.77709C2.46727 8.77709 1.74079 8.37052 1.33144 7.70344C0.922093 7.03636 0.888641 6.20453 1.2431 5.50673L2.97882 2.09031C3.32002 1.41883 4.00938 0.99585 4.76257 0.99585H17.2378C17.9909 0.99585 18.6803 1.41883 19.0215 2.09031L20.7572 5.50673C21.1117 6.20453 21.0782 7.03636 20.6689 7.70344C20.2595 8.37052 19.5331 8.77709 18.7504 8.77709V8.77709" stroke="white" stroke-width="1.5" stroke-linecap="round" stroke-linejoin="round"/>
<path d="M13.583 8.77707C15.0084 8.77763 16.1649 7.62342 16.1671 6.198C16.1671 6.88307 16.4392 7.54009 16.9236 8.02451C17.4081 8.50893 18.0651 8.78107 18.7502 8.78107" stroke="white" stroke-width="1.5" stroke-linecap="round" stroke-linejoin="round"/>
<path d="M8.41602 8.77707C9.84144 8.77763 10.9979 7.62342 11.0001 6.198C11.0001 7.62459 12.1566 8.78107 13.5832 8.78107" stroke="white" stroke-width="1.5" stroke-linecap="round" stroke-linejoin="round"/>
<path d="M3.24902 8.77707C4.67445 8.77763 5.83089 7.62342 5.8331 6.198C5.83531 7.62303 6.99114 8.77707 8.41618 8.77707" stroke="white" stroke-width="1.5" stroke-linecap="round" stroke-linejoin="round"/>
</svg>
