<svg width="22" height="21" viewBox="0 0 22 21" fill="none" xmlns="http://www.w3.org/2000/svg">
<path fill-rule="evenodd" clip-rule="evenodd" d="M2.78312 11H11.7869C12.1278 10.9997 12.4549 11.1349 12.6962 11.3758C12.9374 11.6167 13.0731 11.9436 13.0734 12.2845V18.7182C13.0734 19.4282 12.4979 20.0038 11.7879 20.0038H2.78312C2.07258 20.0038 1.49658 19.4277 1.49658 18.7172V12.2855C1.49713 11.5754 2.07297 11 2.78312 11Z" stroke="white" stroke-width="1.5" stroke-linecap="round" stroke-linejoin="round"/>
<path d="M5.03369 14.0012C5.03369 15.2444 6.04147 16.2522 7.28463 16.2522C8.52779 16.2522 9.53557 15.2444 9.53557 14.0012" stroke="white" stroke-width="1.5" stroke-linecap="round" stroke-linejoin="round"/>
<path d="M1.49658 7.99872V3.99705C1.49658 2.89202 2.39239 1.99622 3.49742 1.99622H9.49992" stroke="white" stroke-width="1.5" stroke-linecap="round" stroke-linejoin="round"/>
<path d="M19.5041 12.0004V18.0029C19.5041 19.108 18.6083 20.0038 17.5033 20.0038H15.5024" stroke="white" stroke-width="1.5" stroke-linecap="round" stroke-linejoin="round"/>
<circle cx="16.5026" cy="4.99752" r="4.00167" stroke="white" stroke-width="1.5" stroke-linecap="round" stroke-linejoin="round"/>
<path d="M17.8367 4.33057L16.1702 5.99789L15.1689 4.99747" stroke="white" stroke-width="1.5" stroke-linecap="round" stroke-linejoin="round"/>
</svg>
