<svg width="22" height="22" viewBox="0 0 22 22" fill="none" xmlns="http://www.w3.org/2000/svg">
<path d="M13.001 18.9133H20.0039" stroke="white" stroke-width="1.5" stroke-linecap="round" stroke-linejoin="round"/>
<path d="M18.7834 8.77905V18.9133" stroke="white" stroke-width="1.5" stroke-linecap="round" stroke-linejoin="round"/>
<path d="M12.0005 12.0004H15.0017V15.0017H13.0009" stroke="white" stroke-width="1.5" stroke-linecap="round" stroke-linejoin="round"/>
<path fill-rule="evenodd" clip-rule="evenodd" d="M3.29667 8.77707C2.52805 8.80524 1.80048 8.43012 1.37762 7.78766C0.954757 7.14519 0.89796 6.32858 1.22781 5.63376L2.94452 2.25535C3.35719 1.47184 4.17391 0.985434 5.0594 0.99583H16.9404C17.826 0.985747 18.6429 1.472 19.0562 2.25535L20.7729 5.63376C21.1029 6.32875 21.046 7.14557 20.6229 7.7881C20.1998 8.43063 19.4719 8.8056 18.7031 8.77707C17.3997 8.87888 16.2562 7.91498 16.136 6.61317V6.56515C16.0306 7.88111 14.886 8.86733 13.5689 8.77707C12.2511 8.86847 11.1053 7.88195 10.9999 6.56515C10.8945 7.88111 9.7499 8.86733 8.43281 8.77707C7.11572 8.86733 5.97116 7.88111 5.86574 6.56515V6.61317C5.74451 7.91528 4.60044 8.87892 3.29667 8.77707Z" stroke="white" stroke-width="1.5" stroke-linecap="round" stroke-linejoin="round"/>
<path d="M5.49797 12.0004C7.98429 12.0004 9.99984 14.016 9.99984 16.5023C9.99984 18.9886 7.98429 21.0042 5.49797 21.0042C3.01165 21.0042 0.996094 18.9886 0.996094 16.5023C0.996094 14.016 3.01165 12.0004 5.49797 12.0004" stroke="white" stroke-width="1.5" stroke-linecap="round" stroke-linejoin="round"/>
</svg>
