<svg width="21" height="22" viewBox="0 0 21 22" fill="none" xmlns="http://www.w3.org/2000/svg">
<path d="M11.3691 12.3196H13.7116C14.3 12.3196 14.8644 12.5534 15.2805 12.9695C15.6966 13.3856 15.9304 13.9499 15.9304 14.5384V17.3837C15.9304 18.263 15.2175 18.9758 14.3382 18.9758H13.4641" stroke="white" stroke-width="1.5" stroke-linecap="round" stroke-linejoin="round"/>
<path d="M6.52973 19.2331C7.56664 19.2331 8.58044 19.1291 9.5622 19.0223M2.65033 18.9051C2.20929 18.7626 1.87822 18.3732 1.82224 17.8992C1.69461 16.8184 1.54834 15.6932 1.54834 14.5373C1.54834 13.3815 1.69461 12.2562 1.82224 11.1755C1.88802 10.6184 2.33381 10.178 2.89154 10.1182C4.06014 9.99295 5.27809 9.84161 6.52973 9.84161C7.78136 9.84161 8.99933 9.99295 10.1679 10.1182C10.7256 10.178 11.1714 10.6184 11.2372 11.1755C11.3649 12.2562 11.5111 13.3815 11.5111 14.5373C11.5111 15.4751 11.4148 16.3927 11.3103 17.2829" stroke="white" stroke-width="1.5" stroke-linecap="round" stroke-linejoin="round"/>
<path d="M4.57959 21.1946C5.83488 21.1946 6.541 20.4885 6.541 19.2331C6.541 17.9778 5.83488 17.2717 4.57959 17.2717C3.32428 17.2717 2.61816 17.9778 2.61816 19.2331C2.61816 20.4885 3.32428 21.1946 4.57959 21.1946Z" stroke="white" stroke-width="1.5" stroke-linecap="round" stroke-linejoin="round"/>
<path d="M11.5107 21.1946C12.766 21.1946 13.4721 20.4885 13.4721 19.2331C13.4721 17.9778 12.766 17.2717 11.5107 17.2717C10.2554 17.2717 9.54932 17.9778 9.54932 19.2331C9.54932 20.4885 10.2554 21.1946 11.5107 21.1946Z" stroke="white" stroke-width="1.5" stroke-linecap="round" stroke-linejoin="round"/>
<path d="M14.3354 7.04518L15.7938 5.58685" stroke="white" stroke-width="1.5" stroke-linecap="round" stroke-linejoin="round"/>
<path d="M18.3023 11.6159C19.4537 10.6351 20.0662 9.10411 20.0662 7.09659C20.0662 3.3961 17.9848 1.31458 14.2842 1.31458C10.9078 1.31458 8.87917 3.04753 8.5498 6.16208" stroke="white" stroke-width="1.5" stroke-linecap="round" stroke-linejoin="round"/>
</svg>
