<svg width="17" height="20" viewBox="0 0 17 20" fill="none" xmlns="http://www.w3.org/2000/svg">
<path fill-rule="evenodd" clip-rule="evenodd" d="M5.5 0.25H11.5C12.4665 0.25 13.25 1.0335 13.25 2V4C13.25 4.9665 12.4665 5.75 11.5 5.75H5.5C4.5335 5.75 3.75 4.9665 3.75 4V2C3.75 1.0335 4.5335 0.25 5.5 0.25ZM11.5 1.75H5.5C5.36193 1.75 5.25 1.86193 5.25 2V4C5.25 4.13807 5.36193 4.25 5.5 4.25H11.5C11.6381 4.25 11.75 4.13807 11.75 4V2C11.75 1.86193 11.6381 1.75 11.5 1.75Z" fill="white"/>
<path d="M4.5 2.25C4.91421 2.25 5.25 2.58579 5.25 3C5.25 3.3797 4.96785 3.69349 4.60177 3.74315L4.5 3.75H3C2.6203 3.75 2.30651 4.03215 2.25685 4.39823L2.25 4.5V17.5C2.25 17.8797 2.53215 18.1935 2.89823 18.2432L3 18.25H14C14.3797 18.25 14.6935 17.9678 14.7432 17.6018L14.75 17.5V4.5C14.75 4.1203 14.4678 3.80651 14.1018 3.75685L14 3.75H12.5C12.0858 3.75 11.75 3.41421 11.75 3C11.75 2.6203 12.0322 2.30651 12.3982 2.25685L12.5 2.25H14C15.1909 2.25 16.1656 3.17516 16.2448 4.34595L16.25 4.5V17.5C16.25 18.6909 15.3248 19.6656 14.154 19.7448L14 19.75H3C1.80914 19.75 0.834355 18.8248 0.755191 17.654L0.75 17.5V4.5C0.75 3.30914 1.67516 2.33436 2.84595 2.25519L3 2.25H4.5Z" fill="white"/>
<path d="M12.5 13.75C12.9142 13.75 13.25 14.0858 13.25 14.5C13.25 14.8797 12.9678 15.1935 12.6018 15.2432L12.5 15.25H10C9.58579 15.25 9.25 14.9142 9.25 14.5C9.25 14.1203 9.53215 13.8065 9.89823 13.7568L10 13.75H12.5Z" fill="white"/>
<path d="M6.49888 13.0937C6.80706 12.817 7.28125 12.8424 7.55802 13.1506C7.80962 13.4308 7.81144 13.8481 7.57816 14.1296L7.50113 14.2097L6.16491 15.4097C5.90832 15.6402 5.53254 15.6632 5.25216 15.4788L5.16253 15.4096L4.49875 14.8132C4.19063 14.5364 4.16528 14.0622 4.44212 13.7541C4.69379 13.474 5.10856 13.4276 5.41339 13.6294L5.50126 13.6975L5.6638 13.8431L6.49888 13.0937Z" fill="white"/>
<path d="M12.5 9.75C12.9142 9.75 13.25 10.0858 13.25 10.5C13.25 10.8797 12.9678 11.1935 12.6018 11.2432L12.5 11.25H10C9.58579 11.25 9.25 10.9142 9.25 10.5C9.25 10.1203 9.53215 9.80651 9.89823 9.75685L10 9.75H12.5Z" fill="white"/>
<path d="M6.49888 9.09373C6.80706 8.81697 7.28125 8.84244 7.55802 9.15062C7.80962 9.43078 7.81144 9.84814 7.57816 10.1296L7.50113 10.2097L6.16491 11.4097C5.90832 11.6402 5.53254 11.6632 5.25216 11.4788L5.16253 11.4096L4.49875 10.8132C4.19063 10.5364 4.16528 10.0622 4.44212 9.75408C4.69379 9.47398 5.10856 9.42756 5.41339 9.62943L5.50126 9.69745L5.6638 9.84306L6.49888 9.09373Z" fill="white"/>
</svg>
